<?xml version="1.0" encoding="UTF-8" standalone="no"?>
<!DOCTYPE svg PUBLIC "-//W3C//DTD SVG 1.1//EN" "http://www.w3.org/Graphics/SVG/1.1/DTD/svg11.dtd">
<svg xmlns="http://www.w3.org/2000/svg" version="1.1" viewBox="0.00 0.00 500.00 500.00">
<path fill="#ffffff" d="
  M 146.31 308.65
  Q 142.55 305.15 140.34 300.54
  Q 140.12 300.09 139.61 300.08
  L 132.51 299.90
  A 2.06 2.06 0.0 0 1 130.50 298.03
  Q 129.96 292.22 130.16 286.11
  C 130.36 280.33 132.96 274.54 134.56 268.90
  Q 135.44 265.84 137.07 264.24
  Q 140.63 260.75 146.51 259.05
  Q 151.97 257.48 151.57 251.87
  Q 151.38 249.17 151.73 248.14
  C 153.13 244.13 159.02 241.58 162.95 240.69
  C 165.73 240.05 168.41 239.78 170.83 238.21
  Q 175.06 235.48 176.31 233.27
  Q 183.47 220.55 193.14 209.63
  Q 193.94 208.73 193.99 207.50
  Q 194.32 199.91 194.34 192.32
  C 194.37 185.52 196.80 181.31 203.63 179.91
  C 205.40 179.55 207.32 179.85 207.95 181.78
  C 209.31 185.94 203.02 188.83 201.96 192.66
  Q 200.78 196.94 201.84 201.22
  A 0.51 0.51 0.0 0 0 202.66 201.48
  Q 208.12 196.87 215.26 196.81
  Q 226.26 196.71 237.79 196.74
  A 0.82 0.82 0.0 0 1 238.35 198.15
  L 231.68 204.56
  Q 231.35 204.87 231.77 205.07
  C 232.39 205.35 233.09 205.41 233.69 204.97
  C 241.57 199.29 247.08 195.47 257.15 196.87
  A 1.74 1.74 0.0 0 0 259.13 195.18
  L 259.21 190.84
  A 1.87 1.87 0.0 0 0 257.34 188.93
  L 216.65 188.95
  Q 216.04 188.95 215.84 189.53
  L 215.13 191.62
  Q 215.00 192.00 214.60 191.99
  L 211.84 191.92
  A 0.80 0.80 0.0 0 1 211.06 191.14
  L 210.98 186.01
  A 1.95 1.95 0.0 0 1 212.93 184.02
  Q 235.04 184.04 256.96 184.02
  C 260.19 184.02 260.78 182.72 262.85 180.64
  Q 265.71 177.75 270.86 178.42
  Q 271.36 178.49 271.53 178.96
  L 272.84 182.53
  A 2.47 2.47 0.0 0 0 275.37 184.14
  Q 290.07 182.92 304.39 187.17
  Q 314.21 190.08 316.51 190.62
  C 344.08 197.08 371.14 204.41 398.56 210.91
  C 402.32 211.80 402.95 214.24 402.91 217.93
  Q 402.57 252.12 402.85 273.00
  C 402.90 276.50 400.74 276.55 398.00 276.12
  A 1.29 1.29 0.0 0 0 396.51 277.39
  L 396.49 300.28
  A 1.97 1.96 -87.1 0 1 394.33 302.24
  C 387.89 301.61 386.58 303.80 384.38 309.19
  Q 384.15 309.75 384.75 309.75
  Q 391.18 309.74 397.57 310.36
  Q 403.27 310.92 397.55 310.93
  L 104.17 311.34
  Q 103.74 311.34 104.07 311.05
  Q 104.60 310.60 105.13 310.58
  Q 107.34 310.51 109.27 310.47
  A 1.12 1.11 84.1 0 0 110.34 309.15
  C 109.09 302.56 106.71 296.27 105.23 289.75
  C 101.18 271.83 101.11 252.22 103.60 234.11
  Q 104.97 224.18 107.87 214.61
  Q 122.64 165.93 163.29 135.72
  Q 171.35 129.73 180.16 124.99
  Q 225.01 100.86 275.89 108.50
  C 309.75 113.59 340.54 130.89 363.72 156.07
  Q 367.48 160.16 376.62 172.47
  C 377.49 173.65 378.89 174.60 378.11 176.40
  Q 377.80 177.12 377.28 176.53
  Q 341.12 135.76 288.76 128.51
  Q 267.37 125.54 241.25 129.29
  Q 236.00 130.04 225.24 133.53
  C 191.68 144.40 161.08 168.03 143.60 198.80
  C 124.42 232.55 119.39 271.70 129.03 308.93
  A 0.72 0.72 0.0 0 0 129.74 309.47
  L 146.02 309.40
  A 0.43 0.43 0.0 0 0 146.31 308.65
  Z
  M 279.13 228.37
  Q 279.20 255.00 279.19 281.37
  A 1.55 1.54 -87.1 0 0 280.58 282.91
  C 282.90 283.15 284.03 282.89 284.03 280.24
  Q 284.05 235.49 284.05 190.35
  A 1.43 1.43 0.0 0 0 282.61 188.92
  Q 275.87 188.96 268.79 188.95
  C 265.23 188.94 265.61 193.66 265.79 195.86
  A 0.71 0.70 0.5 0 0 266.42 196.50
  Q 269.11 196.80 269.72 198.77
  Q 273.07 209.55 277.18 220.03
  C 278.18 222.59 279.12 226.12 279.13 228.37
  Z
  M 292.15 268.99
  Q 292.14 270.23 292.65 269.10
  Q 293.22 267.85 293.52 264.80
  Q 296.49 234.42 298.91 203.96
  A 2.84 2.84 0.0 0 1 302.24 201.38
  Q 339.77 207.98 377.78 214.79
  Q 379.32 215.07 380.67 215.02
  A 0.43 0.43 0.0 0 0 380.77 214.18
  L 294.64 192.03
  A 1.87 1.87 0.0 0 0 292.33 193.55
  Q 292.26 194.04 292.26 194.75
  Q 292.42 231.73 292.15 268.99
  Z
  M 186.70 226.55
  L 179.71 237.06
  A 0.48 0.48 0.0 0 0 180.19 237.80
  Q 197.58 234.69 215.24 238.19
  C 218.16 238.77 220.28 237.88 221.91 235.25
  Q 224.48 231.11 226.82 226.47
  A 1.18 1.17 -74.3 0 0 225.87 224.76
  C 213.26 223.70 200.34 225.35 187.65 226.01
  A 1.21 1.18 14.6 0 0 186.70 226.55
  Z
  M 240.65 224.94
  C 230.98 223.84 229.97 230.45 226.22 237.18
  A 1.72 1.72 0.0 0 0 228.16 239.68
  Q 237.72 237.17 247.74 237.01
  C 252.79 236.93 252.28 232.61 251.96 228.50
  C 251.70 225.07 247.79 225.59 244.87 225.41
  Q 244.79 225.41 240.65 224.94
  Z
  M 164.44 250.64
  A 1.51 1.50 9.5 0 1 165.46 252.06
  L 165.41 275.07
  A 1.68 1.68 0.0 0 0 167.09 276.75
  Q 169.20 276.76 169.23 275.00
  Q 169.42 263.47 169.46 252.40
  Q 169.47 250.51 171.36 250.50
  Q 173.52 250.49 173.52 252.50
  Q 173.50 264.12 173.49 275.28
  A 1.56 1.55 2.2 0 0 174.93 276.83
  Q 176.58 276.95 177.42 276.52
  Q 178.18 276.13 178.19 274.44
  Q 178.25 263.49 178.15 252.10
  A 1.53 1.52 81.7 0 1 179.25 250.62
  Q 182.01 249.83 182.06 252.49
  Q 182.25 264.08 182.30 275.73
  A 0.89 0.87 14.1 0 0 182.78 276.51
  Q 184.23 277.24 185.65 276.54
  Q 186.26 276.24 186.26 275.56
  L 186.26 251.94
  A 1.47 1.47 0.0 0 1 187.91 250.48
  L 190.03 250.74
  A 0.82 0.81 -86.4 0 1 190.74 251.55
  L 190.76 275.30
  Q 190.76 275.97 191.31 276.35
  Q 192.94 277.48 195.08 276.99
  C 197.09 276.52 197.00 275.53 197.00 273.74
  Q 196.96 262.25 196.99 250.74
  C 197.00 249.07 196.60 247.99 194.92 247.60
  Q 178.84 243.88 162.70 246.91
  C 158.85 247.63 157.12 247.62 157.14 251.98
  Q 157.22 263.43 157.23 274.90
  C 157.23 276.54 158.02 277.05 159.57 276.84
  Q 161.01 276.65 161.01 275.19
  L 160.97 252.05
  Q 160.97 251.49 161.41 251.13
  Q 162.71 250.05 164.44 250.64
  Z
  M 248.01 262.77
  C 245.13 251.23 233.86 247.67 223.30 251.71
  C 218.48 253.57 214.93 254.34 211.50 259.33
  Q 211.10 259.92 211.75 259.63
  C 216.33 257.60 221.39 255.17 226.05 254.60
  Q 238.93 253.02 247.45 263.05
  Q 248.34 264.09 248.01 262.77
  Z
  M 222.00 267.84
  C 215.40 264.14 204.46 268.70 201.71 275.34
  A 1.08 1.07 -78.7 0 0 202.70 276.83
  L 225.29 276.93
  Q 225.74 276.93 226.05 276.62
  C 228.66 273.99 224.16 269.06 222.00 267.84
  Z
  M 241.02 269.46
  C 248.93 278.43 248.77 295.70 241.43 304.99
  Q 241.05 305.47 241.66 305.39
  Q 245.01 304.97 246.33 302.26
  Q 252.72 289.05 247.38 274.99
  C 246.10 271.60 244.69 270.22 241.50 268.81
  A 0.41 0.41 0.0 0 0 241.02 269.46
  Z
  M 319.09 282.76
  A 0.32 0.32 0.0 0 0 318.64 283.20
  C 323.23 289.44 322.86 297.22 320.69 304.33
  A 0.52 0.52 0.0 0 0 321.60 304.81
  C 325.37 300.12 324.61 291.17 322.23 286.09
  C 321.51 284.55 320.42 283.81 319.09 282.76
  Z
  M 337.37 306.55
  Q 340.28 304.17 340.75 301.52
  C 341.53 297.17 342.11 286.83 337.42 284.34
  Q 336.62 283.91 337.05 284.71
  Q 342.93 295.46 336.78 306.04
  A 0.40 0.39 85.6 0 0 337.37 306.55
  Z
  M 368.12 301.35
  C 367.61 303.00 366.52 304.73 365.79 306.45
  A 0.42 0.42 0.0 0 0 366.48 306.90
  Q 371.88 301.25 370.89 294.01
  C 370.36 290.10 369.90 286.84 366.48 284.98
  A 0.45 0.45 0.0 0 0 365.89 285.62
  Q 370.70 292.96 368.12 301.35
  Z
  M 383.90 306.17
  C 388.74 300.67 387.72 291.20 383.83 285.78
  Q 383.38 285.16 382.57 285.22
  Q 382.06 285.26 382.31 285.70
  C 385.94 292.11 386.11 299.51 383.24 305.74
  Q 382.09 308.23 383.90 306.17
  Z
  M 171.31 306.92
  Q 171.05 307.61 171.09 307.92
  Q 171.21 308.90 172.20 308.88
  L 218.35 307.91
  A 1.21 1.21 0.0 0 0 219.19 305.85
  Q 217.25 303.87 216.20 301.36
  Q 216.00 300.89 215.56 300.65
  Q 214.12 299.86 213.25 299.89
  Q 197.48 300.54 181.76 300.08
  Q 174.01 299.85 171.31 306.92
  Z
  M 168.16 302.09
  L 165.45 305.10
  A 0.49 0.48 12.9 0 0 165.95 305.89
  Q 169.41 304.94 171.17 301.83
  A 1.15 1.15 0.0 0 0 169.83 300.17
  Q 168.62 300.55 168.31 301.82
  A 0.68 0.61 -18.9 0 1 168.16 302.09
  Z
  M 340.28 308.52
  L 351.63 309.07
  A 0.28 0.28 0.0 0 0 351.92 308.81
  L 351.95 308.31
  A 5.80 5.58 2.8 0 0 346.43 302.45
  L 346.11 302.44
  A 5.80 5.58 2.8 0 0 340.04 307.73
  L 340.02 308.23
  A 0.28 0.28 0.0 0 0 340.28 308.52
  Z
  M 249.25 304.15
  A 1.23 1.23 0.0 0 0 248.57 304.36
  L 247.07 305.35
  A 1.23 1.23 0.0 0 0 247.74 307.61
  L 302.69 308.10
  A 1.23 1.23 0.0 0 0 303.80 306.32
  L 303.02 304.79
  A 1.23 1.23 0.0 0 0 301.92 304.11
  L 249.25 304.15
  Z"
/>
<path fill="#ffffff" d="
  M 221.50 168.59
  Q 220.01 174.33 215.00 175.69
  Q 212.56 176.36 205.27 176.96
  Q 197.73 177.59 192.82 183.77
  C 189.06 188.50 190.93 196.13 190.76 200.25
  C 190.49 206.78 186.57 213.36 181.70 218.64
  Q 178.93 221.66 177.15 224.60
  C 175.27 227.69 172.65 233.16 169.42 234.87
  C 161.43 239.09 147.17 239.36 147.73 251.48
  Q 147.80 253.01 147.43 253.90
  Q 146.76 255.52 145.80 255.86
  Q 140.27 257.78 135.44 261.10
  Q 134.99 261.41 134.76 261.37
  A 0.95 0.95 0.0 0 1 133.98 260.38
  Q 134.36 254.92 135.66 249.49
  C 138.76 236.61 143.51 223.38 150.48 212.06
  C 152.42 208.92 154.28 205.48 156.19 202.65
  Q 188.03 155.58 243.17 144.60
  Q 253.38 142.56 262.99 142.07
  Q 289.44 140.73 314.72 149.85
  Q 315.82 150.25 316.30 150.62
  A 1.04 1.03 -26.4 0 1 315.67 152.47
  C 308.62 152.52 310.84 157.01 308.84 160.94
  C 307.27 164.02 304.26 164.90 300.84 165.55
  A 1.51 1.49 14.8 0 0 300.02 166.02
  C 297.85 168.46 295.82 169.66 292.33 169.97
  Q 284.89 170.64 277.97 173.39
  Q 275.64 174.32 272.89 174.64
  Q 264.42 175.63 257.47 180.78
  A 1.12 1.11 26.1 0 1 256.79 181.01
  L 215.74 181.30
  A 1.13 1.08 -35.0 0 1 215.41 181.25
  Q 213.20 180.56 213.52 179.37
  Q 213.66 178.86 214.36 178.52
  C 221.14 175.34 227.01 176.06 234.99 177.19
  C 239.46 177.83 243.02 174.22 245.65 170.17
  A 1.01 1.00 16.0 0 1 246.47 169.72
  Q 253.38 169.70 260.23 169.95
  C 263.36 170.06 265.45 169.44 266.94 166.80
  Q 267.20 166.35 267.64 166.09
  C 272.38 163.36 277.34 160.56 274.44 154.50
  A 1.17 1.14 88.2 0 0 273.85 153.93
  Q 269.96 152.23 265.92 152.31
  C 263.86 152.35 262.02 153.39 259.93 153.95
  A 1.65 1.64 47.1 0 1 258.96 153.91
  Q 253.00 151.83 247.00 153.78
  A 3.06 3.05 -31.3 0 1 243.89 153.03
  C 241.58 150.73 237.95 147.74 234.75 150.44
  Q 231.28 153.37 227.20 159.19
  C 224.86 162.53 226.79 165.82 222.10 167.89
  A 1.08 1.06 -5.0 0 0 221.50 168.59
  Z
  M 282.3663 153.4598
  A 3.03 2.88 41.3 0 0 281.9908 149.2964
  A 3.03 2.88 41.3 0 0 277.8137 149.4602
  A 3.03 2.88 41.3 0 0 278.1892 153.6236
  A 3.03 2.88 41.3 0 0 282.3663 153.4598
  Z
  M 302.1400 159.6262
  A 2.19 1.75 -0.1 0 0 299.9469 157.8800
  A 2.19 1.75 -0.1 0 0 297.7600 159.6338
  A 2.19 1.75 -0.1 0 0 299.9531 161.3800
  A 2.19 1.75 -0.1 0 0 302.1400 159.6262
  Z
  M 218.16 165.67
  A 2.90 2.90 0.0 0 0 215.26 162.77
  A 2.90 2.90 0.0 0 0 212.36 165.67
  A 2.90 2.90 0.0 0 0 215.26 168.57
  A 2.90 2.90 0.0 0 0 218.16 165.67
  Z"
/>
<path fill="#ffffff" d="
  M 381.22 203.68
  L 296.69 182.42
  A 1.25 1.24 -84.7 0 1 295.75 181.28
  C 295.50 177.07 308.76 178.68 310.99 178.74
  Q 313.96 178.82 315.92 177.31
  A 1.68 1.68 0.0 0 1 317.93 177.27
  C 320.77 179.28 323.29 180.95 326.96 180.59
  Q 337.36 179.58 344.54 171.82
  Q 346.25 169.97 346.61 168.05
  A 1.20 1.19 -66.6 0 1 348.49 167.30
  Q 365.52 179.77 378.21 196.19
  C 379.72 198.14 381.57 200.11 382.31 202.52
  Q 382.80 204.07 381.22 203.68
  Z
  M 350.5388 180.8951
  A 2.53 2.53 0.0 0 0 348.1962 178.1907
  L 346.7200 178.0849
  A 2.53 2.53 0.0 0 0 344.0155 180.4275
  L 343.9412 181.4649
  A 2.53 2.53 0.0 0 0 346.2838 184.1693
  L 347.7600 184.2751
  A 2.53 2.53 0.0 0 0 350.4645 181.9325
  L 350.5388 180.8951
  Z"
/>
<path fill="#ffffff" d="
  M 286.74 178.14
  L 289.40 178.82
  Q 289.96 178.96 290.04 179.54
  Q 290.10 180.05 289.78 180.37
  Q 289.50 180.65 288.89 180.66
  Q 283.45 180.75 278.47 181.10
  A 1.29 1.29 0.0 0 1 277.20 179.27
  C 278.96 175.48 283.15 173.25 285.97 177.59
  A 1.30 1.27 79.8 0 0 286.74 178.14
  Z"
/>
<path fill="#ffffff" d="
  M 241.71 341.03
  A 0.45 0.45 0.0 0 0 241.87 341.88
  Q 246.43 342.19 248.74 345.59
  C 250.29 347.88 249.51 351.05 249.51 353.78
  A 1.37 1.34 -65.9 0 0 249.84 354.67
  Q 251.07 356.07 253.01 356.18
  A 1.66 1.66 0.0 0 1 253.64 359.33
  Q 245.93 363.02 237.05 361.92
  Q 234.19 361.56 232.74 360.63
  C 226.76 356.80 233.19 351.98 231.75 347.73
  Q 229.95 342.42 224.67 344.38
  Q 224.18 344.56 224.06 345.07
  C 221.79 354.30 219.28 364.96 207.69 361.91
  C 204.52 361.08 196.62 359.73 198.04 356.04
  A 0.77 0.75 9.5 0 1 198.74 355.56
  Q 203.61 355.53 205.02 352.01
  C 207.75 345.19 209.95 336.82 214.79 331.18
  Q 216.27 329.47 218.43 328.87
  Q 223.38 327.50 228.29 327.61
  A 1.62 1.61 -80.2 0 1 229.78 329.73
  L 226.44 339.96
  A 0.83 0.83 0.0 0 0 227.18 341.05
  C 232.54 341.34 240.18 337.05 240.21 331.48
  Q 240.24 325.31 234.12 324.32
  Q 221.36 322.26 210.17 328.27
  A 1.42 1.42 0.0 0 1 208.16 326.53
  C 209.42 323.09 222.57 319.75 226.02 319.06
  Q 238.30 316.59 249.94 320.55
  Q 253.39 321.72 254.90 323.95
  C 260.48 332.19 252.21 338.22 245.22 339.86
  Q 243.24 340.32 241.71 341.03
  Z"
/>
<path fill="#ffffff" d="
  M 304.49 331.21
  C 301.87 328.38 296.53 325.62 292.81 324.59
  C 284.13 322.17 273.37 324.27 265.29 327.98
  C 264.79 328.21 264.04 328.21 263.60 327.99
  A 1.02 1.02 0.0 0 1 263.33 326.35
  C 270.09 319.67 284.56 318.15 293.50 318.25
  Q 299.49 318.32 308.47 321.09
  C 310.46 321.70 310.99 321.98 310.56 324.26
  Q 309.79 328.25 307.53 331.09
  A 2.01 2.00 -47.1 0 1 304.49 331.21
  Z"
/>
<path fill="#ffffff" d="
  M 370.98 340.97
  A 0.96 0.96 0.0 0 0 371.64 342.58
  Q 374.92 342.74 377.99 342.89
  Q 379.68 342.97 378.58 344.87
  A 1.34 1.33 9.2 0 1 377.69 345.51
  Q 373.01 346.50 368.94 346.58
  C 365.18 346.66 365.71 356.50 366.12 358.62
  A 1.51 1.51 0.0 0 1 365.53 360.11
  Q 360.25 363.94 355.02 360.24
  C 353.96 359.49 351.77 359.69 350.36 360.19
  C 345.95 361.75 333.30 364.16 329.96 359.86
  Q 327.57 356.80 329.09 353.10
  Q 333.42 342.58 336.81 331.69
  C 340.16 320.91 326.88 323.93 321.78 324.85
  A 1.06 1.06 0.0 0 1 321.15 322.84
  C 330.74 318.45 340.04 315.98 349.97 320.78
  C 357.52 324.42 351.07 343.14 348.79 349.48
  Q 347.94 351.85 349.34 355.45
  Q 349.58 356.04 350.21 356.11
  L 353.26 356.42
  A 0.75 0.73 14.1 0 0 354.01 355.98
  Q 361.36 338.98 377.25 329.67
  C 378.98 328.66 380.16 327.29 382.50 327.81
  Q 383.00 327.93 382.65 328.31
  L 370.98 340.97
  Z"
/>
<path fill="#ffffff" d="
  M 184.58 334.27
  C 184.64 327.22 182.34 322.90 174.49 323.34
  Q 167.37 323.74 160.30 326.79
  A 1.32 1.31 86.5 0 1 158.52 325.21
  Q 158.63 324.83 159.84 324.14
  C 169.10 318.88 181.86 315.73 191.53 320.53
  C 201.07 325.26 202.93 335.51 198.78 345.01
  Q 195.88 351.62 190.78 355.63
  C 182.62 362.02 159.94 366.06 152.68 356.61
  C 147.61 350.01 149.67 342.71 154.60 336.60
  Q 162.44 326.89 175.83 326.82
  A 1.30 1.30 0.0 0 1 176.62 329.15
  Q 165.60 337.51 166.04 351.23
  C 166.31 359.77 173.04 358.61 177.30 353.81
  Q 184.48 345.71 184.58 334.27
  Z"
/>
<path fill="#ffffff" d="
  M 398.09 356.07
  L 401.60 356.56
  Q 402.13 356.63 402.25 357.15
  Q 402.70 359.08 401.05 359.56
  C 393.59 361.75 387.61 363.25 380.31 361.05
  C 375.51 359.60 379.24 348.91 380.80 345.55
  Q 384.96 336.55 385.95 329.70
  C 387.19 321.19 375.34 324.12 369.87 324.81
  Q 369.20 324.89 369.29 324.23
  C 369.53 322.48 371.04 322.36 372.22 321.81
  C 379.54 318.38 389.80 316.41 397.28 320.18
  C 401.58 322.34 402.85 326.59 402.02 331.02
  Q 399.94 342.14 397.65 349.73
  Q 396.73 352.79 397.30 355.34
  A 0.94 0.94 0.0 0 0 398.09 356.07
  Z"
/>
<path fill="#ffffff" d="
  M 101.41 328.47
  L 97.45 328.42
  A 0.94 0.94 0.0 0 1 96.80 326.81
  Q 104.02 319.66 114.46 319.62
  C 122.38 319.59 120.40 327.10 118.46 332.21
  Q 115.55 339.87 112.04 347.25
  Q 109.24 353.15 109.18 359.15
  A 2.04 2.03 88.6 0 1 107.27 361.16
  Q 100.80 361.55 94.00 361.03
  C 90.29 360.75 90.93 357.71 91.98 355.32
  Q 97.31 343.28 102.97 330.93
  A 1.74 1.73 12.7 0 0 101.41 328.47
  Z"
/>
<path fill="#ffffff" d="
  M 130.56 341.35
  C 133.52 342.10 135.93 342.08 137.85 344.89
  A 1.44 1.44 0.0 0 1 138.10 345.82
  C 137.85 349.18 136.59 356.63 142.36 356.30
  A 1.42 1.42 0.0 0 1 143.44 358.72
  C 139.49 362.67 129.24 362.40 124.27 361.45
  C 121.59 360.93 120.32 359.45 120.40 356.61
  Q 120.54 351.29 122.12 346.24
  A 1.54 1.48 42.4 0 0 122.05 345.19
  Q 120.76 342.34 117.52 341.74
  A 0.91 0.91 0.0 0 1 117.42 339.98
  Q 130.30 335.92 132.58 322.70
  C 133.24 318.88 142.74 320.05 145.57 320.02
  A 1.16 1.16 0.0 0 1 146.74 321.27
  Q 145.55 337.00 130.56 340.92
  Q 129.74 341.14 130.56 341.35
  Z"
/>
<path fill="#ffffff" d="
  M 285.08 333.37
  Q 292.36 338.27 298.72 344.41
  Q 301.24 346.85 301.76 349.30
  C 303.40 357.12 295.97 360.44 288.98 361.40
  Q 276.70 363.09 264.64 360.51
  Q 261.89 359.92 261.42 359.66
  C 258.39 358.00 261.80 352.67 263.29 350.92
  A 1.50 1.50 0.0 0 1 265.26 350.63
  C 268.73 352.89 279.30 360.81 283.24 355.70
  A 1.94 1.93 38.9 0 0 282.95 353.03
  Q 280.83 351.26 278.65 349.32
  C 274.28 345.43 262.00 338.78 269.31 331.23
  C 272.48 327.96 278.77 327.34 283.49 327.21
  A 1.21 1.21 0.0 0 1 284.73 328.45
  L 284.64 332.52
  Q 284.63 333.07 285.08 333.37
  Z"
/>
<path fill="#ffffff" d="
  M 322.95 342.34
  Q 325.85 343.07 329.27 342.86
  Q 330.45 342.78 330.26 344.01
  Q 330.06 345.35 328.74 345.66
  Q 326.29 346.22 323.92 346.49
  C 315.80 347.40 316.20 352.00 317.66 358.64
  Q 317.77 359.10 317.40 359.41
  Q 311.84 364.12 305.54 360.28
  A 1.14 1.11 13.9 0 1 305.01 359.43
  C 304.66 355.84 306.98 352.68 308.48 349.65
  C 312.75 341.05 322.10 333.16 330.15 328.67
  Q 331.41 327.97 333.16 328.32
  Q 333.58 328.41 333.30 328.73
  L 322.50 340.88
  A 0.90 0.89 -62.2 0 0 322.95 342.34
  Z"
/>
<path fill="#ffffff" d="
  M 208.52 376.76
  L 209.18 372.83
  A 0.70 0.69 6.0 0 1 209.90 372.25
  L 210.98 372.32
  A 0.67 0.66 7.0 0 1 211.59 373.10
  L 209.09 386.46
  Q 208.96 387.17 208.25 387.01
  L 206.69 386.66
  Q 206.27 386.57 205.84 386.63
  L 202.74 387.06
  Q 202.26 387.12 201.95 386.75
  C 198.69 382.90 202.04 375.19 207.80 377.19
  Q 208.42 377.40 208.52 376.76
  Z
  M 204.2492 384.6715
  A 3.14 1.88 111.5 0 0 207.1492 382.4390
  A 3.14 1.88 111.5 0 0 206.5508 378.8285
  A 3.14 1.88 111.5 0 0 203.6508 381.0610
  A 3.14 1.88 111.5 0 0 204.2492 384.6715
  Z"
/>
<path fill="#ffffff" d="
  M 322.53 376.84
  Q 322.86 375.46 323.07 374.05
  Q 323.23 372.96 323.67 372.55
  Q 324.39 371.88 325.56 372.36
  A 0.86 0.85 16.9 0 1 326.08 373.32
  L 323.27 386.61
  Q 323.16 387.17 322.60 387.03
  L 320.28 386.42
  A 0.50 0.45 -51.4 0 0 319.91 386.48
  C 313.04 390.57 313.06 374.42 321.86 377.22
  Q 322.40 377.39 322.53 376.84
  Z
  M 318.4856 384.7673
  A 3.16 1.84 112.6 0 0 321.3987 382.5571
  A 3.16 1.84 112.6 0 0 320.9144 378.9327
  A 3.16 1.84 112.6 0 0 318.0013 381.1429
  A 3.16 1.84 112.6 0 0 318.4856 384.7673
  Z"
/>
<ellipse fill="#ffffff" cx="0.00" cy="0.00" transform="translate(294.65,373.99) rotate(-34.9)" rx="1.78" ry="1.50"/>
<path fill="#ffffff" d="
  M 113.71 381.24
  A 0.60 0.60 0.0 0 1 113.12 380.44
  L 113.35 379.79
  Q 113.58 379.12 114.29 379.12
  L 118.17 379.11
  Q 118.74 379.10 118.75 379.67
  C 118.80 384.57 118.15 386.91 112.98 387.10
  C 103.36 387.44 106.47 371.10 118.30 373.47
  C 119.77 373.77 120.61 374.83 119.80 376.24
  A 0.66 0.65 24.8 0 1 119.02 376.52
  C 113.74 374.61 109.15 376.88 110.23 383.15
  Q 110.33 383.70 110.81 383.99
  Q 112.30 384.86 114.04 384.68
  Q 115.30 384.55 115.61 383.33
  Q 116.16 381.15 113.71 381.24
  Z"
/>
<path fill="#ffffff" d="
  M 238.3366 386.4804
  A 7.66 6.00 124.0 0 1 237.6458 376.7748
  A 7.66 6.00 124.0 0 1 246.9034 373.7796
  A 7.66 6.00 124.0 0 1 247.5942 383.4852
  A 7.66 6.00 124.0 0 1 238.3366 386.4804
  Z
  M 240.9003 384.8075
  A 4.98 3.29 112.3 0 0 245.8339 381.4484
  A 4.98 3.29 112.3 0 0 244.6797 375.5925
  A 4.98 3.29 112.3 0 0 239.7461 378.9516
  A 4.98 3.29 112.3 0 0 240.9003 384.8075
  Z"
/>
<path fill="#ffffff" d="
  M 354.90 379.15
  L 358.23 379.19
  Q 358.82 379.20 358.88 379.78
  C 359.14 382.29 355.82 381.53 354.45 381.58
  A 0.76 0.76 0.0 0 0 353.72 382.23
  L 353.16 386.11
  Q 353.07 386.75 352.44 386.94
  Q 351.09 387.34 350.55 386.73
  Q 350.18 386.29 350.39 385.25
  Q 351.55 379.51 352.91 373.84
  A 0.74 0.72 -82.8 0 1 353.61 373.28
  L 359.19 373.30
  Q 359.76 373.30 359.94 373.84
  Q 360.29 374.92 359.63 375.50
  Q 359.22 375.85 358.33 375.81
  Q 356.95 375.75 355.53 375.77
  Q 355.00 375.78 354.87 376.30
  L 354.33 378.40
  Q 354.14 379.14 354.90 379.15
  Z"
/>
<path fill="#ffffff" d="
  M 176.88 379.75
  L 176.26 384.03
  A 0.61 0.60 -82.6 0 0 176.79 384.72
  L 177.54 384.82
  A 0.91 0.91 0.0 0 1 177.99 386.44
  Q 176.32 387.74 174.18 386.78
  A 1.83 1.83 0.0 0 1 173.12 384.80
  L 173.97 379.88
  Q 174.05 379.44 173.73 379.12
  L 173.01 378.40
  A 0.55 0.54 52.7 0 1 173.12 377.54
  L 174.53 376.73
  A 0.98 0.97 -12.1 0 0 175.02 375.98
  Q 175.23 373.89 177.34 374.36
  Q 177.90 374.49 177.88 375.07
  L 177.85 376.09
  A 0.80 0.80 0.0 0 0 178.32 376.85
  L 179.32 377.29
  A 0.57 0.56 27.4 0 1 179.58 378.09
  Q 178.95 379.13 177.78 379.03
  Q 177.00 378.97 176.88 379.75
  Z"
/>
<path fill="#ffffff" d="
  M 383.18 379.91
  Q 382.95 381.86 382.80 383.78
  Q 382.71 385.00 383.58 384.91
  A 0.88 0.88 0.0 0 1 384.19 386.50
  Q 382.68 387.60 380.78 386.79
  Q 379.18 386.11 379.51 384.40
  L 380.38 379.92
  Q 380.48 379.35 380.02 379.01
  L 379.37 378.52
  A 0.49 0.49 0.0 0 1 379.37 377.73
  L 381.00 376.54
  A 0.89 0.85 -17.9 0 0 381.35 375.89
  Q 381.44 374.22 383.26 374.33
  A 0.82 0.82 0.0 0 1 384.02 375.27
  Q 383.75 377.08 385.61 377.24
  A 0.57 0.57 0.0 0 1 385.80 378.32
  L 383.60 379.33
  A 0.74 0.73 81.4 0 0 383.18 379.91
  Z"
/>
<path fill="#ffffff" d="
  M 126.17 386.41
  L 122.86 387.17
  A 1.70 1.70 0.0 0 1 120.79 385.31
  L 121.76 377.56
  A 0.78 0.78 0.0 0 1 122.57 376.88
  L 124.12 376.95
  A 0.57 0.57 0.0 0 1 124.65 377.64
  L 123.45 383.07
  Q 123.01 385.08 125.04 384.75
  Q 125.63 384.65 126.28 383.87
  C 127.41 382.52 127.79 379.72 127.95 378.06
  A 1.36 1.35 85.6 0 1 128.98 376.85
  Q 129.97 376.60 130.37 377.01
  Q 130.65 377.31 130.51 378.05
  Q 129.71 382.12 128.89 386.20
  Q 128.79 386.73 128.28 386.91
  Q 127.56 387.16 126.98 386.62
  Q 126.63 386.30 126.17 386.41
  Z"
/>
<path fill="#ffffff" d="
  M 137.04 386.38
  C 128.93 390.55 130.79 374.39 138.64 377.14
  Q 139.10 377.31 139.59 377.23
  L 141.10 376.97
  Q 141.85 376.85 141.73 377.60
  L 140.25 386.28
  A 0.79 0.79 0.0 0 1 139.69 386.91
  Q 138.71 387.17 138.00 386.51
  Q 137.57 386.11 137.04 386.38
  Z
  M 135.2254 384.6346
  A 3.17 1.88 114.5 0 0 138.2507 382.5296
  A 3.17 1.88 114.5 0 0 137.8546 378.8654
  A 3.17 1.88 114.5 0 0 134.8293 380.9704
  A 3.17 1.88 114.5 0 0 135.2254 384.6346
  Z"
/>
<path fill="#ffffff" d="
  M 147.87 377.09
  Q 148.34 376.84 148.95 376.74
  A 1.15 1.15 0.0 0 1 149.41 379.00
  L 147.36 379.49
  A 0.86 0.85 -1.2 0 0 146.73 380.14
  L 145.50 386.17
  A 1.21 1.20 11.5 0 1 144.08 387.10
  L 143.09 386.90
  A 0.66 0.65 -78.3 0 1 142.58 386.12
  L 144.46 377.53
  Q 144.59 376.90 145.23 376.99
  L 147.01 377.24
  Q 147.47 377.31 147.87 377.09
  Z"
/>
<path fill="#ffffff" d="
  M 157.07 377.16
  Q 157.74 377.30 159.92 377.01
  Q 160.46 376.94 160.38 377.48
  L 159.00 386.47
  A 0.64 0.63 -80.3 0 1 158.26 387.00
  L 156.50 386.68
  A 3.07 2.86 -40.7 0 0 155.77 386.65
  L 152.44 386.98
  A 1.15 1.15 0.0 0 1 151.39 386.49
  Q 149.94 384.44 150.80 381.35
  Q 152.25 376.15 157.07 377.16
  Z
  M 154.0441 384.6595
  A 3.14 1.84 111.6 0 0 156.9108 382.4173
  A 3.14 1.84 111.6 0 0 156.3559 378.8205
  A 3.14 1.84 111.6 0 0 153.4892 381.0627
  A 3.14 1.84 111.6 0 0 154.0441 384.6595
  Z"
/>
<path fill="#ffffff" d="
  M 168.73 379.78
  A 1.62 1.33 -37.9 0 0 165.76 379.70
  L 164.14 386.37
  Q 164.01 386.93 163.43 386.99
  L 161.89 387.13
  Q 161.18 387.20 161.33 386.50
  L 163.23 377.40
  Q 163.38 376.66 164.10 376.90
  L 165.48 377.36
  Q 165.86 377.49 166.26 377.38
  L 168.65 376.70
  A 2.09 2.08 -8.4 0 1 171.31 378.67
  Q 171.37 382.68 170.11 386.45
  Q 169.92 387.00 169.33 387.00
  L 167.88 387.00
  A 0.55 0.54 6.5 0 1 167.35 386.35
  L 168.73 379.78
  Z"
/>
<path fill="#ffffff" d="
  M 182.47 383.42
  L 182.69 384.38
  A 0.66 0.66 0.0 0 0 183.37 384.90
  L 187.27 384.65
  A 0.45 0.45 0.0 0 1 187.71 385.28
  C 186.76 387.37 184.33 387.34 182.36 386.92
  C 175.89 385.54 181.57 373.10 188.60 377.80
  Q 189.00 378.07 189.10 378.53
  C 189.89 382.10 185.82 382.86 183.06 382.72
  A 0.58 0.57 85.4 0 0 182.47 383.42
  Z
  M 186.3981 379.1535
  A 1.70 0.92 -20.9 0 0 184.4818 378.9005
  A 1.70 0.92 -20.9 0 0 183.2219 380.3665
  A 1.70 0.92 -20.9 0 0 185.1382 380.6195
  A 1.70 0.92 -20.9 0 0 186.3981 379.1535
  Z"
/>
<path fill="#ffffff" d="
  M 192.73 383.34
  L 192.78 384.11
  A 0.83 0.83 0.0 0 0 193.65 384.90
  L 197.07 384.72
  A 0.84 0.84 0.0 0 1 197.52 386.29
  Q 194.62 387.91 191.41 386.60
  Q 190.90 386.39 190.68 385.87
  C 188.67 381.16 192.75 374.77 198.04 377.20
  A 2.52 2.52 0.0 0 1 198.39 381.58
  Q 196.16 383.06 193.41 382.71
  Q 192.69 382.62 192.73 383.34
  Z
  M 196.9055 379.2459
  A 1.81 0.96 -16.5 0 0 194.8973 378.8395
  A 1.81 0.96 -16.5 0 0 193.4345 380.2741
  A 1.81 0.96 -16.5 0 0 195.4427 380.6805
  A 1.81 0.96 -16.5 0 0 196.9055 379.2459
  Z"
/>
<path fill="#ffffff" d="
  M 254.88 377.27
  Q 256.13 376.50 256.99 376.89
  A 1.19 1.19 0.0 0 1 256.38 379.16
  Q 255.27 379.05 254.28 379.83
  Q 253.81 380.19 253.70 380.78
  L 252.60 386.46
  A 0.71 0.71 0.0 0 1 251.87 387.04
  L 250.28 386.98
  A 0.58 0.58 0.0 0 1 249.74 386.28
  L 251.65 377.50
  A 0.71 0.70 -78.0 0 1 252.48 376.96
  L 254.39 377.35
  A 0.66 0.65 -53.9 0 0 254.88 377.27
  Z"
/>
<path fill="#ffffff" d="
  M 262.64 386.45
  C 255.51 389.78 256.94 379.50 261.20 376.84
  A 1.30 1.29 38.4 0 1 262.28 376.72
  Q 264.57 377.51 266.90 376.98
  A 0.58 0.58 0.0 0 1 267.60 377.66
  L 265.33 388.80
  A 1.11 1.11 0.0 0 1 264.89 389.47
  Q 261.89 391.58 258.33 390.41
  Q 257.53 390.15 257.41 389.63
  Q 257.29 389.12 257.86 388.57
  Q 258.21 388.23 258.69 388.36
  C 260.42 388.82 262.78 389.07 263.29 386.99
  A 0.47 0.47 0.0 0 0 262.64 386.45
  Z
  M 260.8924 384.7083
  A 3.20 1.95 115.5 0 0 264.0300 382.6595
  A 3.20 1.95 115.5 0 0 263.6476 378.9317
  A 3.20 1.95 115.5 0 0 260.5100 380.9805
  A 3.20 1.95 115.5 0 0 260.8924 384.7083
  Z"
/>
<path fill="#ffffff" d="
  M 274.05 386.25
  C 266.29 391.15 267.34 373.85 275.91 377.27
  Q 276.44 377.49 276.95 377.20
  Q 277.71 376.75 278.54 377.01
  A 0.47 0.47 0.0 0 1 278.86 377.53
  L 277.50 386.22
  A 0.97 0.96 86.3 0 1 276.81 387.01
  Q 275.53 387.36 274.88 386.42
  Q 274.55 385.94 274.05 386.25
  Z
  M 272.2491 384.6453
  A 3.15 1.87 113.2 0 0 275.2088 382.4867
  A 3.15 1.87 113.2 0 0 274.7309 378.8547
  A 3.15 1.87 113.2 0 0 271.7712 381.0133
  A 3.15 1.87 113.2 0 0 272.2491 384.6453
  Z"
/>
<path fill="#ffffff" d="
  M 284.98 377.34
  Q 287.38 375.89 289.38 377.79
  A 1.16 1.15 23.0 0 1 289.74 378.67
  Q 289.48 384.12 288.33 386.26
  Q 287.45 387.89 285.84 386.74
  Q 285.48 386.48 285.57 386.04
  L 286.82 380.27
  A 1.35 1.35 0.0 0 0 284.20 379.61
  L 282.26 386.39
  A 0.76 0.74 -83.0 0 1 281.57 386.94
  L 280.24 387.00
  A 0.67 0.67 0.0 0 1 279.55 386.19
  L 281.39 377.45
  A 0.67 0.67 0.0 0 1 282.19 376.93
  L 284.51 377.41
  A 0.64 0.63 36.3 0 0 284.98 377.34
  Z"
/>
<rect fill="#ffffff" x="-1.41" y="-5.23" transform="translate(293.03,381.94) rotate(12.2)" width="2.82" height="10.46" rx="1.06"/>
<path fill="#ffffff" d="
  M 307.28 383.26
  Q 307.06 383.98 307.57 384.47
  Q 307.89 384.78 308.53 384.79
  Q 310.26 384.81 311.66 384.57
  A 0.81 0.81 0.0 0 1 312.24 386.04
  Q 308.69 388.33 305.12 386.05
  A 1.33 1.30 -79.1 0 1 304.53 385.16
  Q 303.47 378.81 309.20 376.98
  C 315.19 375.07 315.98 383.35 308.07 382.73
  A 0.76 0.76 0.0 0 0 307.28 383.26
  Z
  M 311.0855 379.1294
  A 1.71 0.94 -22.0 0 0 309.1479 378.8984
  A 1.71 0.94 -22.0 0 0 307.9145 380.4106
  A 1.71 0.94 -22.0 0 0 309.8521 380.6416
  A 1.71 0.94 -22.0 0 0 311.0855 379.1294
  Z"
/>
<path fill="#ffffff" d="
  M 367.26 377.24
  L 369.11 376.84
  A 0.68 0.68 0.0 0 1 369.92 377.64
  L 368.13 386.04
  Q 367.99 386.67 367.40 386.92
  Q 366.61 387.25 365.98 386.59
  Q 365.66 386.25 365.21 386.41
  C 362.74 387.26 360.09 388.07 359.76 384.26
  Q 359.27 378.56 363.87 376.82
  Q 364.43 376.61 364.99 376.79
  L 366.28 377.19
  Q 366.76 377.35 367.26 377.24
  Z
  M 363.2065 384.7429
  A 3.12 1.79 111.5 0 0 366.0154 382.4960
  A 3.12 1.79 111.5 0 0 365.4935 378.9371
  A 3.12 1.79 111.5 0 0 362.6846 381.1840
  A 3.12 1.79 111.5 0 0 363.2065 384.7429
  Z"
/>
<path fill="#ffffff" d="
  M 374.83 383.74
  L 372.02 381.93
  A 0.45 0.39 7.3 0 1 371.86 381.75
  C 369.67 377.62 374.82 376.13 377.74 377.12
  Q 378.32 377.31 378.22 377.92
  L 378.10 378.60
  A 0.65 0.64 17.7 0 1 377.18 379.07
  Q 375.86 378.41 374.47 378.87
  A 0.81 0.81 0.0 0 0 374.56 380.43
  Q 377.47 381.04 377.84 383.92
  A 1.43 1.43 0.0 0 1 377.52 385.02
  Q 374.82 388.25 370.76 386.64
  Q 370.08 386.37 370.30 385.67
  L 370.42 385.29
  Q 370.54 384.90 370.95 384.89
  L 374.53 384.79
  A 0.57 0.57 0.0 0 0 374.83 383.74
  Z"
/>
<path fill="#ffffff" d="
  M 299.57 379.02
  L 297.81 379.00
  Q 297.00 378.99 297.16 378.19
  L 297.30 377.56
  A 0.71 0.69 5.5 0 1 297.99 377.00
  L 303.21 376.97
  A 0.81 0.80 12.3 0 1 303.95 378.11
  Q 302.38 381.55 299.52 384.03
  A 0.38 0.38 0.0 0 0 299.76 384.70
  L 302.21 384.81
  Q 302.60 384.83 302.75 385.19
  Q 303.39 386.75 302.01 386.89
  Q 298.94 387.21 296.87 386.83
  Q 294.66 386.43 296.06 384.67
  L 299.93 379.78
  A 0.47 0.47 0.0 0 0 299.57 379.02
  Z"
/>
</svg>
